<?xml version="1.0" encoding="utf-8"?>
<!-- Generator: Adobe Illustrator 16.0.3, SVG Export Plug-In . SVG Version: 6.00 Build 0)  -->
<!DOCTYPE svg PUBLIC "-//W3C//DTD SVG 1.1//EN" "http://www.w3.org/Graphics/SVG/1.1/DTD/svg11.dtd">
<svg version="1.1" id="Layer_1" xmlns="http://www.w3.org/2000/svg" xmlns:xlink="http://www.w3.org/1999/xlink" x="0px" y="0px"
	 width="443px" height="104px" viewBox="0 0 443 104" enable-background="new 0 0 443 104" xml:space="preserve">
<g>
	<path d="M146.244,35.004c-5.939-3.04-9.873-7.228-12.209-12.848c-1.98-4.762-1.082-8.573,2.942-11.853
		c5.503-4.486,12.104-6.211,18.989-6.818c3.652-0.322,7.365-0.196,11.031,0.032c1.276,0.079,2.808,0.782,3.673,1.711
		c1.716,1.845,3.225,3.944,4.489,6.129c1.116,1.93,0.855,4.02-0.643,6.072c-2.349-4.205-6.235-5.1-10.424-4.89
		c-5.081,0.254-10.148,0.803-15.213,1.305c-0.946,0.094-1.877,0.514-2.778,0.876c-6.425,2.59-7.384,9.065-1.994,13.507
		c3.005,2.477,6.629,3.59,10.373,3.95c3.301,0.317,6.662-0.01,9.996,0.012c0.428,0.003,1.039,0.283,1.246,0.627
		c0.61,1.017,1.188,2.088,1.551,3.212c1.369,4.25,0.566,5.146-3.708,5.156c-4.488,0.011-8.995,0.203-13.456,0.675
		c-3.035,0.322-5.677,1.851-7.762,4.189c-3.038,3.406-2.631,8.002,1.451,10.034c2.933,1.459,6.366,2.02,9.639,2.648
		c1.883,0.361,3.896,0.125,5.846,0.053c3.746-0.137,6.973-1.258,9.461-4.368c1.119-1.399,2.786-2.718,4.457-3.2
		c1.302-0.375,3.452,0.144,4.4,1.091c1.294,1.292,0.106,2.912-1.042,4.1c-3.763,3.896-8.509,5.771-13.737,6.626
		c-5.813,0.95-11.632,1.377-17.449,0.028c-3.677-0.852-6.628-2.828-8.665-5.992c-1.621-2.519-3.016-5.179-4.548-7.755
		c-1.683-2.828-1.114-5.535,1.09-7.555c1.993-1.825,4.455-3.202,6.863-4.491C141.86,36.332,143.856,35.862,146.244,35.004z"/>
	<path d="M328.325,62.99c-0.822-0.438-1.859-0.475-3.019-0.732c0-4.881-0.138-9.755,0.063-14.615
		c0.091-2.192,0.944-4.344,1.258-6.542c0.081-0.57-0.489-1.724-0.899-1.794c-2.674-0.456-2.633-2.185-2.289-4.213
		c0.176-1.032,0.256-2.09,0.271-3.139c0.066-4.423-1.516-6.579-5.773-7.969c-1.707-0.558-3.465-1-5.104-1.712
		c-3.393-1.476-6.109-1.055-8.412,1.817c-1.154,1.439-2.124,3.113-2.807,4.828c-2.604,6.542-2.813,13.444-2.965,20.377
		c-0.047,2.081-0.717,4.267-1.61,6.163c-0.506,1.072-2.038,2.232-3.132,2.256c-0.758,0.016-1.973-1.736-2.26-2.881
		c-1.116-4.431-1.106-8.937,0.188-13.351c0.487-1.659,0.482-2.837-1.271-3.745c-0.607-0.314-1.117-1.313-1.203-2.053
		c-0.262-2.233-0.184-4.506-0.442-6.739c-0.299-2.566-1.685-4.46-4.126-5.461c-1.588-0.65-3.221-1.193-4.796-1.869
		c-3.991-1.711-8.351-0.645-10.782,2.975c-1.193,1.778-2.354,3.787-2.766,5.844c-1.014,5.054-1.708,10.181-2.297,15.307
		c-0.512,4.452-1.473,8.738-3.819,12.572c-0.542,0.888-1.821,1.754-2.793,1.789c-0.588,0.021-1.417-1.498-1.806-2.461
		c-0.41-1.019-0.506-2.189-0.6-3.306c-0.557-6.664,0.217-13.17,2.319-19.529c0.86-2.605,0.325-3.688-2.313-4.236
		c-2.343-0.486-4.75-0.715-7.142-0.883c-1.431-0.101-2.019-0.596-1.921-2.062c0.074-1.107,0.35-2.618-0.229-3.275
		c-1.845-2.095-3.631-4.471-7.024-4.246c-2.165,0.144-4.354-0.044-6.531-0.149c-1.428-0.069-2.142-0.708-1.911-2.322
		c0.318-2.227,0.372-4.491,0.641-6.727c0.613-5.116,0.172-5.73-4.935-6.537c-0.147-0.023-0.303-0.016-0.448-0.051
		c-1.662-0.404-2.57,0.088-2.615,1.954c-0.068,2.927-0.229,5.852-0.394,8.775c-0.083,1.478-0.258,2.95-0.396,4.461
		c-0.594,0.063-0.979,0.194-1.323,0.126c-6.352-1.264-10.734,1.766-14.394,6.493c-1.009,1.304-2.204,2.463-3.318,3.685
		c-1.287,1.411-2.579,2.818-3.882,4.242c-1-2.964-1.695-5.813-2.906-8.423c-1.751-3.773-4.609-4.651-8.105-2.507
		c-5.623,3.447-9.491,8.432-11.863,14.574c-0.186,0.48-0.238,1.022-0.288,1.542c-0.146,1.544,0.613,1.947,1.905,1.32
		c1.716-0.833,3.132-1.882,3.653-3.976c0.446-1.789,1.135-3.609,2.127-5.152c1.76-2.736,4.408-2.56,5.607,0.434
		c1.078,2.69,1.761,5.567,2.32,8.42c0.22,1.121-0.086,2.55-0.635,3.583c-3.63,6.818-7.407,13.559-11.085,20.35
		c-0.353,0.651-0.556,2.133-0.49,2.153c1.794,0.563,3.629,1.007,5.475,1.39c0.1,0.021,0.45-0.649,0.508-1.024
		c1.052-6.819,5.289-12.032,8.655-18.011c1.206,2.562,2.125,4.756,3.248,6.84c1.49,2.768,3.449,5.147,6.632,6.06
		c4.163,1.192,8.121,0.8,11.3-2.386c3.741-3.75,5.506-8.353,4.929-13.688c-0.06-0.549-0.911-1.012-1.395-1.516
		c-0.427,0.531-1.035,0.999-1.25,1.604c-0.944,2.67-1.421,5.567-2.726,8.035c-2.347,4.44-6.392,4.606-8.865,0.304
		c-1.959-3.407-3.164-7.246-4.76-10.869c-0.709-1.61-0.253-2.836,0.845-4.082c3.527-4,7.084-7.982,10.449-12.118
		c1.931-2.374,3.988-3.256,7.034-2.389c1.76,0.501,2.381,1.012,2.333,2.984c-0.205,8.176-0.376,16.365-0.11,24.535
		c0.13,3.972,1.441,7.849,4.437,10.808c3.05,3.012,7.152,3.075,9.97-0.056c1.426-1.585,2.545-3.526,3.482-5.461
		c3.154-6.515,4.208-13.574,4.916-20.679c0.172-1.735,0.798-2.431,2.488-2.316c1.978,0.134,1.64,1.51,1.596,2.79
		c-0.141,4.2-0.665,8.442-0.254,12.59c0.361,3.656,1.256,7.462,2.852,10.746c2.467,5.077,8.145,5.168,11.457,0.58
		c0.79-1.094,1.428-2.298,2.258-3.651c0.231,0.545,0.348,0.81,0.457,1.076c0.112,0.277,0.24,0.551,0.328,0.836
		c1.492,4.836,5.682,5.436,9.709,5.795c3.135,0.28,5.014-2.082,6.422-4.578c1.045-1.853,1.852-3.838,2.902-6.057
		c0.867,3.653,2.357,6.684,6.133,7.549c4.082,0.938,6.271-1.965,8.553-4.881c1.211,5.039,4.451,7.057,9.285,7.827
		c6.047,0.962,6.151-4.335,9.151-7.262c0,1.122,0,2.097,0,3.071c0,2.612-0.801,4.627-3.075,6.516
		c-7.596,6.306-11.527,14.688-12.253,24.492c-0.381,5.168,1.91,8.297,6.938,9.486c1.521,0.359,3.093,0.482,4.66,0.612
		c6.002,0.495,8.5-1.366,9.838-7.278c0.217-0.949,0.467-1.914,0.492-2.879c0.194-7.58,0.334-15.162,0.504-22.744
		c0.021-0.932,0.108-1.861,0.168-2.824c1.026,0,1.828,0.174,2.502-0.045c0.773-0.252,1.434-0.854,2.144-1.303
		C329.396,64.186,328.99,63.346,328.325,62.99z M240.229,38.005c0.246,5.816-1.155,11.321-3.307,16.644
		c-0.804,1.99-1.814,4.463-4.418,4.123c-2.475-0.326-2.628-2.961-2.697-4.881c-0.223-6.147-0.215-12.306-0.199-18.458
		c0.008-2.854,0.263-5.705,0.358-8.559c0.05-1.482,0.62-2.356,2.21-2.49c2.982-0.25,5.958-0.578,8.555-0.835
		c-0.355,1.581-0.877,2.841-0.875,4.099C239.863,31.099,240.083,34.552,240.229,38.005z M283.004,38.753
		c-1.206,2.578-0.811,5.875-1.299,8.826c-0.463,2.797-1.074,5.577-1.792,8.319c-0.274,1.049-0.798,2.287-1.615,2.879
		c-1.247,0.904-2.847,1.767-4.294,1.762c-0.751-0.003-1.908-1.813-2.163-2.966c-0.655-2.979-0.911-6.046-1.47-10.131
		c0.8-3.925,1.6-8.788,2.857-13.529c0.446-1.68,1.766-3.341,3.113-4.521c2.338-2.044,5.508-1.193,6.641,1.696
		C283.953,33.562,284.334,35.91,283.004,38.753z M317.171,38.832c-0.47,1.222-0.469,2.618-0.729,3.926
		c-0.741,3.724-1.476,7.45-2.295,11.157c-0.172,0.78-0.651,1.507-1.064,2.215c-1.458,2.499-3.74,4.156-5.229,3.565
		c-2.242-0.891-2.385-3.096-2.656-5.077c-0.295-2.147-0.403-4.319-0.594-6.48c-0.166-0.047-0.332-0.094-0.496-0.14
		c0.965-4.734,1.693-9.536,3.011-14.17c0.552-1.946,2.088-3.826,3.639-5.223c2.149-1.939,4.931-1.149,6.091,1.5
		C318.084,32.93,318.32,35.837,317.171,38.832z M316.346,90.989c-0.18,1.79-1.335,3.678-2.521,5.127
		c-1.846,2.255-4.848,1.657-5.934-1.054c-0.517-1.287-0.906-2.766-0.83-4.127c0.426-7.621,3.053-14.433,7.865-20.389
		c0.604-0.75,1.025-1.648,1.531-2.479c0.488,0.267,0.979,0.533,1.467,0.801C317.432,76.246,317.078,83.637,316.346,90.989z"/>
	<path d="M441.379,46.875c-0.153-0.547-0.616-1.405-0.955-1.41c-0.52-0.008-1.271,0.482-1.521,0.968
		c-0.398,0.776-0.397,1.746-0.687,2.593c-0.841,2.471-1.489,5.06-2.729,7.32c-0.583,1.063-2.337,1.971-3.581,1.998
		c-0.729,0.016-2.07-1.806-2.146-2.869c-0.314-4.548-0.418-9.126-0.271-13.684c0.064-2.043,0.641-4.178,1.468-6.058
		c0.729-1.654,0.434-2.847-0.758-3.781c-1.336-1.048-2.815-2.061-4.397-2.617c-2.752-0.967-4.13-0.241-5.229,2.481
		c-1.546,3.819-2.988,7.681-4.448,11.534c-0.934,2.465-1.818,4.947-2.727,7.422c-0.432-5.069-0.481-10.017-0.402-14.963
		c0.025-1.617-0.614-2.591-2.078-3.044c-3.486-1.08-5.893-0.763-7.2,2.705c-1.495,3.968-2.917,8.01-4.303,12.02
		c-0.099,0.007-0.415,0.015-0.415,0.022c0-0.74,0-1.48,0-2.22c0-5.487,0.048-10.975,0.161-16.46
		c0.032-1.615-0.437-2.347-1.966-2.562c-1.187-0.167-2.321-0.476-3.508-0.644c-1.399-0.199-1.988,0.343-1.998,1.879
		c-0.033,5.634,0.02,11.283-0.39,16.896c-0.239,3.307-1.103,6.604-2.021,9.808c-0.5,1.736-1.467,3.898-3.719,3.624
		c-2.269-0.276-2.517-2.612-2.746-4.431c-0.529-4.188-0.688-8.384,0.742-12.48c0.443-1.274,0.1-2.229-1.156-3.037
		c-0.721-0.463-1.289-1.478-1.491-2.345c-0.269-1.145-0.095-2.391-0.14-3.592c-0.213-5.718-1.172-7.045-6.502-9.047
		c-0.42-0.157-0.841-0.327-1.234-0.537c-6.369-3.386-11.643-0.848-13.893,5.061c-1.451,3.81-2.373,7.899-2.938,11.947
		c-0.794,5.699-0.566,11.569-3.191,16.907c-0.555,1.13-1.204,2.277-2.061,3.18c-1.339,1.409-2.618,1.145-3.275-0.663
		c-0.506-1.394-0.839-2.894-0.972-4.372c-0.596-6.659,0.175-13.171,2.277-19.531c0.902-2.731,0.361-3.766-2.428-4.351
		c-2.121-0.445-4.306-0.749-6.469-0.799c-1.98-0.045-2.688-0.75-2.439-2.706c0.559-4.425-1.685-4.082-4.567-2.951
		c-1.275,0.5-1.894,1.349-1.75,2.773c0.142,1.419,0.266,2.854,0.217,4.275c-0.217,6.29-0.496,12.578-0.759,18.867
		c-0.051,1.207-1.401,2.917,0.381,3.455c1.777,0.535,2.125-1.49,2.657-2.744c0.347-0.818,0.522-1.726,0.666-2.61
		c0.608-3.777,1.278-7.549,1.709-11.348c0.187-1.638,0.631-2.52,2.405-2.425c2.131,0.115,1.729,1.583,1.686,2.926
		c-0.137,4.201-0.475,8.412-0.298,12.6c0.171,4.049,0.915,8.088,3.377,11.506c2.782,3.861,7.526,3.998,10.511,0.297
		c1-1.24,1.746-2.684,2.783-4.309c1.302,4.377,3.693,6.849,8.347,7.517c3.662,0.526,6.04-0.535,7.839-3.325
		c1.368-2.125,2.362-4.491,3.467-6.637c4.852,9.365,8.162,9.88,15.146,1.861c0.149,1.396,0.104,2.606,0.447,3.697
		c0.309,0.982,0.854,2.359,1.625,2.637c1.792,0.64,3.774,0.865,5.698,0.982c1.564,0.096,2.235-0.795,2.406-2.516
		c0.493-4.922,1.189-9.826,1.969-14.711c0.277-1.75,1.021-3.426,1.553-5.136c0.218,0.049,0.436,0.099,0.652,0.148
		c0.041,0.878,0.099,1.756,0.117,2.635c0.082,3.83,0.051,7.666,0.25,11.49c0.236,4.527,2.557,6.388,6.977,5.576
		c0.756-0.139,1.796-1.168,1.92-1.916c1.038-6.258,2.865-12.253,5.486-18.017c0.308-0.672,0.693-1.307,1.044-1.959
		c0.248,0.677,0.161,1.194,0.131,1.713c-0.361,5.926-0.947,11.898,1.6,17.533c2.737,6.056,9.637,6.759,13.499,1.386
		c2.497-3.473,3.799-7.459,4.506-11.647C441.439,48.076,441.533,47.425,441.379,46.875z M374.146,39.934
		c-0.465,2.575-0.484,5.228-0.904,7.813c-0.442,2.724-1.065,5.425-1.756,8.099c-0.254,0.985-0.697,2.174-1.452,2.719
		c-1.312,0.947-2.919,1.927-4.429,1.971c-0.748,0.021-2.008-1.91-2.267-3.122c-1.772-8.312-1.354-16.522,1.786-24.494
		c0.323-0.821,0.846-1.596,1.404-2.285c1.295-1.589,2.861-2.646,5.068-2.146c2.146,0.486,2.953,2.151,3.471,4.013
		c0.279,1.002,0.383,2.054,0.621,3.401C375.211,37.109,374.409,38.474,374.146,39.934z"/>
</g>
<g>
	<path d="M39.5,27.292c5.726,0,10.385,4.659,10.385,10.386c0,5.726-4.659,10.384-10.385,10.384s-10.385-4.659-10.385-10.385
		C29.115,31.95,33.774,27.292,39.5,27.292 M39.5,21.292c-9.049,0-16.385,7.337-16.385,16.386S30.451,54.061,39.5,54.061
		s16.385-7.335,16.385-16.384S48.549,21.292,39.5,21.292L39.5,21.292z"/>
</g>
<g>
	<circle cx="21.255" cy="20.005" r="5"/>
</g>
<g>
	<path d="M53,7.677c8.822,0,16,7.178,16,16v28c0,8.821-6.678,16-15.5,16h-28c-8.822,0-16.5-7.179-16.5-16v-28
		c0-8.822,7.678-16,16.5-16H53 M53.5,1.677h-28c-12.15,0-22.5,9.85-22.5,22v28c0,12.149,10.35,22,22.5,22h28
		c12.15,0,21.5-9.851,21.5-22v-28c0-12.15-9.6-22-21.75-22H53.5z"/>
</g>
<line fill="none" stroke="#777777" stroke-miterlimit="10" x1="103.5" y1="1.708" x2="103.5" y2="73.708"/>
</svg>
