<?xml version="1.0" encoding="utf-8"?>
<!-- Generator: Adobe Illustrator 16.0.3, SVG Export Plug-In . SVG Version: 6.00 Build 0)  -->
<!DOCTYPE svg PUBLIC "-//W3C//DTD SVG 1.1//EN" "http://www.w3.org/Graphics/SVG/1.1/DTD/svg11.dtd">
<svg version="1.1" id="Layer_1" xmlns="http://www.w3.org/2000/svg" xmlns:xlink="http://www.w3.org/1999/xlink" x="0px" y="0px"
	 width="443px" height="104px" viewBox="0 0 443 104" enable-background="new 0 0 443 104" xml:space="preserve">
<g>
	<g>
		<path fill-rule="evenodd" clip-rule="evenodd" d="M146.244,35.004c-5.939-3.04-9.873-7.228-12.209-12.848
			c-1.98-4.762-1.082-8.573,2.942-11.853c5.503-4.486,12.104-6.211,18.989-6.818c3.652-0.322,7.365-0.196,11.031,0.032
			c1.276,0.079,2.808,0.782,3.673,1.711c1.716,1.845,3.225,3.944,4.489,6.129c1.116,1.93,0.855,4.02-0.643,6.072
			c-2.349-4.205-6.235-5.1-10.424-4.89c-5.081,0.254-10.148,0.803-15.213,1.305c-0.946,0.094-1.877,0.514-2.778,0.876
			c-6.425,2.59-7.384,9.065-1.994,13.507c3.005,2.477,6.629,3.59,10.373,3.95c3.301,0.317,6.662-0.01,9.996,0.012
			c0.428,0.003,1.039,0.283,1.246,0.627c0.61,1.017,1.188,2.088,1.551,3.212c1.369,4.25,0.566,5.146-3.708,5.156
			c-4.488,0.011-8.995,0.203-13.456,0.675c-3.035,0.322-5.677,1.851-7.762,4.189c-3.038,3.406-2.631,8.002,1.451,10.034
			c2.933,1.459,6.366,2.019,9.639,2.648c1.883,0.362,3.896,0.125,5.846,0.053c3.746-0.137,6.973-1.257,9.461-4.368
			c1.119-1.399,2.786-2.718,4.457-3.2c1.302-0.375,3.452,0.144,4.4,1.091c1.294,1.292,0.106,2.912-1.042,4.1
			c-3.763,3.896-8.509,5.772-13.737,6.626c-5.813,0.95-11.632,1.377-17.449,0.029c-3.677-0.852-6.628-2.829-8.665-5.993
			c-1.621-2.518-3.016-5.179-4.548-7.755c-1.683-2.828-1.114-5.535,1.09-7.555c1.993-1.825,4.455-3.202,6.863-4.491
			C141.86,36.332,143.856,35.862,146.244,35.004z"/>
		<path fill-rule="evenodd" clip-rule="evenodd" d="M328.325,62.99c-0.822-0.438-1.859-0.475-3.018-0.732
			c0-4.881-0.138-9.755,0.063-14.615c0.091-2.192,0.944-4.344,1.258-6.542c0.081-0.57-0.489-1.724-0.899-1.794
			c-2.674-0.456-2.634-2.185-2.29-4.213c0.176-1.032,0.257-2.09,0.272-3.139c0.066-4.423-1.516-6.579-5.773-7.969
			c-1.707-0.558-3.465-1-5.104-1.712c-3.393-1.476-6.11-1.055-8.412,1.817c-1.154,1.439-2.124,3.113-2.807,4.828
			c-2.604,6.542-2.813,13.444-2.965,20.377c-0.046,2.081-0.716,4.267-1.61,6.163c-0.506,1.072-2.038,2.233-3.132,2.256
			c-0.757,0.016-1.972-1.737-2.26-2.881c-1.116-4.431-1.106-8.937,0.188-13.351c0.487-1.659,0.482-2.837-1.271-3.745
			c-0.608-0.314-1.118-1.313-1.204-2.053c-0.262-2.233-0.183-4.506-0.442-6.739c-0.299-2.566-1.684-4.46-4.126-5.461
			c-1.588-0.65-3.221-1.193-4.796-1.869c-3.991-1.711-8.35-0.645-10.782,2.975c-1.194,1.778-2.353,3.787-2.766,5.844
			c-1.013,5.054-1.708,10.181-2.296,15.307c-0.512,4.452-1.473,8.739-3.82,12.573c-0.542,0.887-1.822,1.753-2.793,1.788
			c-0.588,0.021-1.417-1.498-1.805-2.46c-0.411-1.019-0.507-2.19-0.6-3.306c-0.557-6.664,0.217-13.17,2.319-19.529
			c0.861-2.605,0.326-3.688-2.314-4.236c-2.342-0.486-4.75-0.715-7.141-0.883c-1.43-0.101-2.019-0.596-1.921-2.062
			c0.074-1.107,0.35-2.618-0.229-3.275c-1.844-2.095-3.63-4.471-7.024-4.246c-2.165,0.144-4.355-0.044-6.531-0.149
			c-1.428-0.069-2.142-0.708-1.911-2.322c0.318-2.227,0.372-4.491,0.64-6.727c0.613-5.116,0.172-5.73-4.934-6.537
			c-0.148-0.023-0.303-0.016-0.448-0.051c-1.662-0.404-2.571,0.088-2.615,1.954c-0.069,2.927-0.23,5.852-0.394,8.775
			c-0.083,1.478-0.258,2.95-0.395,4.461c-0.595,0.063-0.979,0.194-1.324,0.126c-6.352-1.264-10.734,1.766-14.394,6.493
			c-1.009,1.304-2.204,2.463-3.318,3.685c-1.287,1.411-2.579,2.818-3.882,4.242c-1-2.964-1.695-5.813-2.906-8.423
			c-1.751-3.773-4.609-4.651-8.105-2.507c-5.623,3.447-9.491,8.432-11.863,14.574c-0.186,0.48-0.238,1.022-0.288,1.542
			c-0.146,1.544,0.613,1.947,1.905,1.32c1.716-0.833,3.132-1.882,3.653-3.976c0.446-1.789,1.135-3.609,2.127-5.152
			c1.76-2.736,4.408-2.56,5.607,0.434c1.078,2.69,1.761,5.567,2.32,8.42c0.22,1.121-0.086,2.55-0.635,3.583
			c-3.63,6.818-7.407,13.558-11.085,20.35c-0.353,0.651-0.556,2.133-0.49,2.153c1.794,0.564,3.629,1.007,5.475,1.389
			c0.1,0.021,0.45-0.649,0.508-1.024c1.052-6.819,5.289-12.032,8.655-18.011c1.206,2.562,2.125,4.756,3.248,6.841
			c1.49,2.767,3.449,5.147,6.632,6.059c4.163,1.192,8.121,0.8,11.3-2.386c3.741-3.75,5.506-8.353,4.929-13.688
			c-0.06-0.549-0.911-1.012-1.395-1.516c-0.427,0.531-1.035,0.999-1.25,1.604c-0.944,2.67-1.421,5.567-2.726,8.035
			c-2.347,4.44-6.392,4.606-8.865,0.304c-1.959-3.408-3.164-7.246-4.76-10.869c-0.709-1.61-0.253-2.836,0.845-4.082
			c3.527-4,7.084-7.982,10.449-12.118c1.931-2.374,3.988-3.256,7.034-2.389c1.76,0.501,2.382,1.012,2.333,2.984
			c-0.205,8.176-0.376,16.365-0.11,24.535c0.13,3.971,1.441,7.848,4.437,10.807c3.05,3.012,7.152,3.076,9.969-0.055
			c1.427-1.585,2.546-3.526,3.483-5.461c3.154-6.515,4.208-13.574,4.916-20.679c0.172-1.735,0.798-2.431,2.489-2.316
			c1.977,0.134,1.639,1.51,1.595,2.79c-0.141,4.2-0.665,8.442-0.254,12.59c0.361,3.656,1.256,7.462,2.852,10.746
			c2.467,5.077,8.144,5.168,11.457,0.58c0.79-1.094,1.427-2.298,2.257-3.652c0.232,0.546,0.348,0.81,0.457,1.077
			c0.113,0.277,0.241,0.55,0.329,0.836c1.492,4.836,5.681,5.435,9.709,5.795c3.135,0.28,5.013-2.083,6.421-4.579
			c1.045-1.852,1.852-3.837,2.903-6.056c0.867,3.653,2.358,6.683,6.133,7.549c4.082,0.938,6.27-1.965,8.553-4.881
			c1.21,5.039,4.45,7.057,9.285,7.827c6.047,0.962,6.151-4.335,9.151-7.262c0,1.122,0,2.097,0,3.072
			c0,2.612-0.801,4.626-3.075,6.515c-7.596,6.306-11.528,14.687-12.253,24.493c-0.381,5.168,1.91,8.296,6.938,9.485
			c1.522,0.36,3.093,0.483,4.66,0.613c6.002,0.495,8.5-1.366,9.839-7.278c0.216-0.949,0.466-1.915,0.491-2.879
			c0.195-7.581,0.335-15.163,0.505-22.745c0.021-0.931,0.108-1.861,0.167-2.823c1.027,0,1.828,0.173,2.503-0.046
			c0.773-0.252,1.433-0.853,2.143-1.302C329.396,64.185,328.99,63.345,328.325,62.99z M240.229,38.005
			c0.246,5.816-1.156,11.321-3.307,16.644c-0.804,1.99-1.814,4.463-4.418,4.122c-2.474-0.325-2.628-2.961-2.698-4.881
			c-0.222-6.147-0.214-12.305-0.198-18.458c0.007-2.854,0.262-5.705,0.358-8.559c0.049-1.482,0.62-2.356,2.21-2.49
			c2.982-0.25,5.958-0.578,8.554-0.835c-0.355,1.581-0.876,2.841-0.874,4.099C239.863,31.099,240.083,34.552,240.229,38.005z
			 M283.004,38.753c-1.206,2.578-0.811,5.875-1.299,8.826c-0.463,2.797-1.074,5.577-1.792,8.32
			c-0.275,1.048-0.798,2.287-1.615,2.879c-1.247,0.904-2.847,1.766-4.294,1.761c-0.751-0.003-1.909-1.813-2.163-2.966
			c-0.656-2.979-0.911-6.046-1.47-10.131c0.8-3.925,1.6-8.788,2.858-13.529c0.446-1.68,1.765-3.341,3.113-4.521
			c2.337-2.044,5.507-1.193,6.64,1.696C283.953,33.562,284.334,35.91,283.004,38.753z M317.171,38.832
			c-0.47,1.222-0.469,2.618-0.729,3.926c-0.742,3.724-1.476,7.45-2.295,11.157c-0.172,0.78-0.652,1.507-1.065,2.215
			c-1.458,2.499-3.74,4.156-5.229,3.565c-2.241-0.89-2.384-3.096-2.656-5.077c-0.295-2.147-0.403-4.319-0.593-6.48
			c-0.166-0.047-0.332-0.094-0.497-0.14c0.966-4.734,1.694-9.536,3.011-14.17c0.552-1.946,2.088-3.826,3.639-5.223
			c2.15-1.939,4.93-1.149,6.091,1.5C318.084,32.93,318.32,35.837,317.171,38.832z M316.345,90.989
			c-0.179,1.79-1.334,3.678-2.521,5.127c-1.846,2.255-4.847,1.657-5.933-1.053c-0.517-1.288-0.907-2.766-0.831-4.128
			c0.426-7.62,3.053-14.432,7.866-20.388c0.604-0.75,1.025-1.649,1.531-2.479c0.489,0.267,0.978,0.534,1.467,0.801
			C317.432,76.246,317.078,83.637,316.345,90.989z"/>
		<path fill-rule="evenodd" clip-rule="evenodd" d="M441.379,46.875c-0.153-0.547-0.616-1.405-0.955-1.41
			c-0.52-0.008-1.272,0.482-1.522,0.968c-0.398,0.776-0.397,1.746-0.686,2.593c-0.841,2.471-1.489,5.06-2.729,7.319
			c-0.583,1.063-2.337,1.972-3.581,1.999c-0.728,0.016-2.07-1.806-2.145-2.87c-0.315-4.547-0.418-9.126-0.271-13.683
			c0.065-2.043,0.641-4.178,1.468-6.058c0.729-1.654,0.434-2.847-0.758-3.781c-1.336-1.048-2.815-2.061-4.397-2.617
			c-2.752-0.967-4.13-0.241-5.23,2.481c-1.546,3.819-2.988,7.681-4.448,11.534c-0.934,2.465-1.818,4.947-2.726,7.422
			c-0.432-5.069-0.482-10.017-0.403-14.963c0.026-1.617-0.614-2.591-2.078-3.044c-3.486-1.08-5.893-0.763-7.2,2.705
			c-1.496,3.968-2.917,8.01-4.303,12.02c-0.099,0.007-0.415,0.015-0.415,0.022c0-0.74,0-1.48,0-2.22
			c0-5.487,0.048-10.975,0.161-16.46c0.033-1.615-0.437-2.347-1.966-2.562c-1.186-0.167-2.321-0.476-3.507-0.644
			c-1.4-0.199-1.989,0.343-1.998,1.879c-0.034,5.634,0.019,11.283-0.39,16.896c-0.239,3.307-1.102,6.604-2.021,9.808
			c-0.499,1.737-1.467,3.899-3.719,3.624c-2.268-0.276-2.516-2.613-2.745-4.431c-0.53-4.187-0.688-8.384,0.741-12.48
			c0.444-1.274,0.1-2.229-1.156-3.037c-0.72-0.463-1.288-1.478-1.491-2.345c-0.269-1.145-0.094-2.391-0.139-3.592
			c-0.213-5.718-1.173-7.045-6.503-9.047c-0.42-0.157-0.84-0.327-1.234-0.537c-6.369-3.386-11.643-0.848-13.893,5.061
			c-1.45,3.81-2.372,7.899-2.938,11.947c-0.794,5.699-0.566,11.569-3.191,16.908c-0.555,1.129-1.204,2.277-2.061,3.179
			c-1.339,1.409-2.618,1.145-3.275-0.663c-0.506-1.394-0.839-2.894-0.972-4.372c-0.596-6.659,0.175-13.171,2.277-19.531
			c0.903-2.731,0.362-3.766-2.427-4.351c-2.122-0.445-4.306-0.749-6.469-0.799c-1.981-0.045-2.687-0.75-2.44-2.706
			c0.559-4.425-1.684-4.082-4.567-2.951c-1.275,0.5-1.893,1.349-1.75,2.773c0.142,1.419,0.266,2.854,0.217,4.275
			c-0.217,6.29-0.496,12.578-0.759,18.867c-0.051,1.207-1.401,2.917,0.381,3.455c1.777,0.535,2.125-1.49,2.657-2.744
			c0.347-0.818,0.523-1.726,0.666-2.61c0.608-3.777,1.278-7.549,1.709-11.348c0.187-1.638,0.631-2.52,2.405-2.425
			c2.132,0.115,1.729,1.583,1.686,2.926c-0.137,4.201-0.475,8.412-0.298,12.6c0.171,4.049,0.915,8.088,3.377,11.506
			c2.783,3.862,7.527,3.998,10.511,0.297c1-1.24,1.746-2.684,2.783-4.309c1.302,4.377,3.694,6.849,8.347,7.517
			c3.662,0.527,6.04-0.535,7.838-3.325c1.369-2.125,2.363-4.491,3.467-6.637c4.852,9.365,8.163,9.88,15.146,1.862
			c0.149,1.396,0.104,2.606,0.447,3.697c0.309,0.983,0.854,2.359,1.625,2.636c1.792,0.64,3.775,0.866,5.698,0.983
			c1.565,0.096,2.236-0.795,2.407-2.516c0.493-4.921,1.189-9.826,1.969-14.711c0.277-1.75,1.021-3.426,1.552-5.136
			c0.218,0.049,0.435,0.099,0.652,0.148c0.041,0.878,0.099,1.756,0.118,2.635c0.081,3.83,0.05,7.666,0.25,11.49
			c0.236,4.528,2.556,6.388,6.976,5.576c0.756-0.139,1.796-1.168,1.92-1.916c1.038-6.257,2.865-12.253,5.487-18.016
			c0.307-0.672,0.693-1.307,1.043-1.959c0.248,0.677,0.162,1.194,0.131,1.713c-0.361,5.926-0.947,11.898,1.6,17.533
			c2.737,6.055,9.637,6.759,13.499,1.386c2.497-3.473,3.799-7.46,4.506-11.648C441.439,48.076,441.533,47.425,441.379,46.875z
			 M374.146,39.934c-0.464,2.575-0.484,5.228-0.904,7.813c-0.442,2.724-1.065,5.425-1.756,8.099
			c-0.254,0.985-0.697,2.174-1.452,2.719c-1.312,0.947-2.919,1.926-4.428,1.97c-0.749,0.022-2.008-1.91-2.267-3.122
			c-1.773-8.312-1.354-16.522,1.786-24.494c0.323-0.821,0.845-1.596,1.405-2.285c1.294-1.589,2.86-2.646,5.068-2.146
			c2.146,0.486,2.953,2.151,3.471,4.013c0.278,1.002,0.382,2.054,0.62,3.401C375.211,37.109,374.409,38.474,374.146,39.934z"/>
	</g>
	<g>
		<g>
			<path d="M39.5,29.261c5.726,0,10.385,4.659,10.385,10.385S45.226,50.03,39.5,50.03s-10.385-4.659-10.385-10.385
				S33.774,29.261,39.5,29.261 M39.5,23.261c-9.049,0-16.385,7.336-16.385,16.385S30.451,56.03,39.5,56.03
				s16.385-7.336,16.385-16.385S48.549,23.261,39.5,23.261L39.5,23.261z"/>
		</g>
		<g>
			<circle cx="21.255" cy="20.005" r="5.411"/>
		</g>
		<g>
			<path d="M53,7.708c8.822,0,16,7.178,16,16v28c0,8.822-6.678,16-15.5,16h-28c-8.822,0-16.5-7.178-16.5-16v-28
				c0-8.822,7.678-16,16.5-16H53 M53.5,1.708h-28c-12.15,0-22.5,9.85-22.5,22v28c0,12.15,10.35,22,22.5,22h28
				c12.15,0,21.5-9.85,21.5-22v-28c0-12.15-9.6-22-21.75-22H53.5z"/>
		</g>
	</g>
	<line fill="none" stroke="#777777" stroke-miterlimit="10" x1="103.5" y1="1.708" x2="103.5" y2="73.708"/>
</g>
</svg>
